<?xml version="1.0" encoding="UTF-8"?>
<svg xmlns="http://www.w3.org/2000/svg" xmlns:xlink="http://www.w3.org/1999/xlink" width="2100" height="2101" viewBox="0 0 2100 2101">
<defs>
<clipPath id="clip-0">
<path clip-rule="nonzero" d="M 0 0.128906 L 2100 0.128906 L 2100 502 L 0 502 Z M 0 0.128906 "/>
</clipPath>
</defs>
<path fill-rule="evenodd" fill="rgb(0%, 0%, 0%)" fill-opacity="1" d="M 1215.589844 924.910156 C 1215.128906 935.648438 1214.601562 973.191406 1227.871094 1003 C 1243.53125 1038.160156 1225.621094 1047.558594 1232.539062 1071.289062 C 1239.460938 1095.019531 1241.308594 1139.957031 1215.28125 1143.378906 C 1215.28125 1143.378906 1249.371094 1145.804688 1251.578125 1120.613281 C 1251.578125 1120.613281 1253.890625 1123.941406 1262.679688 1128.199219 C 1262.679688 1128.199219 1253.910156 1084.359375 1269.058594 1063.699219 C 1269.058594 1063.699219 1276.941406 1093.691406 1269.839844 1116.820312 C 1262.738281 1139.945312 1258.871094 1148.667969 1270.558594 1166.140625 C 1270.558594 1166.140625 1271.511719 1142.027344 1281.101562 1135.789062 C 1281.101562 1135.789062 1286.371094 1156.046875 1285.320312 1173.730469 C 1284.269531 1191.414062 1299.480469 1214.980469 1300.46875 1207.875 C 1301.46875 1200.769531 1296.949219 1173 1307.078125 1158.554688 C 1307.078125 1158.554688 1320.640625 1193.667969 1311.460938 1207.875 C 1302.289062 1222.085938 1308.410156 1249.609375 1308.410156 1249.609375 C 1308.410156 1249.609375 1310.5 1208.011719 1326.171875 1211.671875 C 1326.171875 1211.671875 1325.988281 1244.058594 1319.460938 1253.402344 C 1312.921875 1262.75 1343.660156 1238.257812 1351.761719 1207.875 C 1351.761719 1207.875 1356.21875 1224.933594 1348.589844 1242.023438 C 1340.96875 1259.109375 1349.019531 1275.132812 1356.53125 1283.757812 C 1356.53125 1283.757812 1354.421875 1260.59375 1363.300781 1245.816406 C 1372.179688 1231.039062 1376.671875 1182.351562 1365.519531 1147.171875 C 1354.378906 1111.992188 1382.660156 1091.621094 1386.339844 1067.5 C 1386.339844 1067.5 1402.058594 1093.46875 1390.609375 1109.230469 C 1379.171875 1124.988281 1372.910156 1131.925781 1383.839844 1147.171875 C 1383.839844 1147.171875 1376.929688 1126.113281 1390.78125 1120.613281 C 1404.621094 1115.109375 1409.410156 1081.320312 1389.738281 1050.128906 C 1370.078125 1018.941406 1413.761719 1029.789062 1414.808594 1010.589844 C 1415.859375 991.390625 1407.339844 988.53125 1410.648438 976.441406 C 1410.648438 976.441406 1413.371094 986.179688 1425.410156 984.03125 C 1425.410156 984.03125 1414.179688 980.71875 1414.089844 961.261719 C 1413.988281 941.808594 1411.488281 939.640625 1420.859375 923.320312 C 1430.21875 907.011719 1395.261719 899.738281 1394.488281 874 C 1393.730469 848.261719 1397.660156 839.859375 1397.660156 839.859375 C 1397.660156 839.859375 1394.398438 868.339844 1401.878906 877.789062 C 1401.878906 877.789062 1397.878906 845.691406 1404.929688 836.058594 C 1410.238281 828.800781 1415.890625 804.660156 1411.621094 784.929688 C 1441.03125 781.011719 1504.929688 769.660156 1551.210938 741.210938 C 1604.238281 708.589844 1657.261719 691.921875 1672.609375 688.089844 C 1687.96875 684.261719 1696.449219 671.550781 1729.53125 661.539062 C 1762.601562 651.519531 1851.398438 565.011719 1892.671875 543.921875 C 1933.941406 522.828125 1923.421875 524.21875 1938.199219 498.390625 C 1952.96875 472.570312 1940.769531 456.089844 1960.960938 441.480469 C 1981.148438 426.878906 1983.199219 436.390625 1991.308594 426.308594 C 1999.429688 416.210938 1979.660156 400.011719 1953.371094 403.539062 C 1927.078125 407.078125 1925.109375 420.398438 1915.429688 426.308594 C 1905.761719 432.210938 1900.191406 427.691406 1885.078125 471.828125 C 1869.96875 515.96875 1852.96875 506.378906 1778.851562 543.921875 C 1704.71875 581.460938 1663.621094 584.300781 1634.671875 616.011719 C 1634.671875 616.011719 1593.699219 623.308594 1532.238281 646.359375 C 1495.988281 659.949219 1456.351562 665.328125 1456.351562 665.328125 C 1456.351562 665.328125 1466.441406 640.441406 1456.351562 616.011719 C 1456.351562 616.011719 1469.21875 610.78125 1467.738281 623.589844 C 1466.25 636.410156 1470.058594 646.558594 1479.121094 646.359375 C 1479.121094 646.359375 1468.800781 644.199219 1475.328125 627.390625 C 1481.851562 610.578125 1462.75 601.378906 1452.558594 608.421875 C 1452.558594 608.421875 1451.761719 573.46875 1422.210938 566.679688 C 1422.210938 566.679688 1407.199219 536.789062 1399.441406 524.949219 C 1391.679688 513.109375 1385.28125 514.578125 1372.890625 521.160156 C 1360.488281 527.730469 1360.429688 512.078125 1346.328125 513.570312 C 1332.230469 515.058594 1292.011719 543.898438 1281.828125 570.480469 C 1274.230469 590.320312 1281.828125 597.039062 1281.828125 597.039062 C 1281.828125 597.039062 1261.378906 611.46875 1251.480469 619.800781 C 1241.578125 628.128906 1237.289062 619.828125 1228.710938 627.390625 C 1220.128906 634.949219 1198.359375 642.558594 1198.359375 642.558594 C 1198.359375 642.558594 1160.238281 617.601562 1141.449219 623.589844 C 1141.449219 623.589844 1073.988281 565.050781 1020.039062 551.511719 C 966.09375 537.960938 955.785156 513.921875 936.570312 502.191406 C 917.359375 490.449219 880.453125 471.050781 864.484375 449.070312 C 848.519531 427.089844 780.082031 400.589844 758.253906 376.980469 C 736.425781 353.378906 739.8125 337 724.105469 323.871094 C 708.402344 310.730469 706.414062 322.601562 708.929688 335.25 C 711.445312 347.890625 696.441406 320.050781 697.546875 308.691406 C 698.652344 297.328125 661.378906 306.160156 659.609375 335.25 C 659.609375 335.25 648.933594 376.101562 689.960938 399.75 C 730.988281 423.390625 776.929688 477.929688 807.574219 505.980469 C 838.21875 534.03125 876.5625 556.5 894.839844 581.859375 C 913.109375 607.21875 962.933594 639.261719 1008.660156 661.539062 C 1008.660156 661.539062 980.003906 669.320312 974.511719 737.421875 C 974.511719 737.421875 965.660156 741.921875 963.128906 748.800781 C 960.601562 755.679688 950.921875 744.78125 944.160156 763.96875 C 944.160156 763.96875 939.671875 762.71875 936.570312 767.769531 C 933.472656 772.808594 927.972656 771.828125 925.191406 775.359375 C 922.40625 778.878906 910.472656 780.21875 910.015625 782.941406 C 909.554688 785.660156 904.84375 776.75 898.632812 786.738281 C 892.421875 796.730469 888.585938 790.050781 875.867188 790.53125 C 863.152344 791.019531 830.339844 801.910156 830.339844 801.910156 C 830.339844 801.910156 796.515625 792.28125 788.605469 794.328125 C 788.605469 794.328125 774.550781 786.160156 773.429688 779.148438 C 772.304688 772.140625 765.839844 771.558594 765.839844 771.558594 C 765.839844 771.558594 734.910156 717.71875 716.519531 699.46875 C 716.519531 699.46875 715.828125 694.398438 708.929688 688.089844 C 702.03125 681.789062 683.496094 654.949219 678.578125 650.148438 C 668.226562 640.070312 667.484375 622.839844 644.433594 612.210938 C 644.433594 612.210938 625.613281 584.101562 591.316406 570.480469 C 557.015625 556.859375 528.054688 570.628906 504.050781 600.828125 C 480.050781 631.039062 477.492188 665.328125 477.492188 665.328125 C 477.492188 665.328125 436.191406 730.261719 424.378906 771.558594 C 412.5625 812.859375 398.121094 864.308594 378.847656 874 C 359.574219 883.691406 359.878906 874 359.878906 874 C 359.878906 874 346.21875 867.769531 333.320312 874 C 333.320312 874 325.230469 868.878906 310.558594 870.210938 C 295.882812 871.53125 291.300781 867.539062 283.996094 866.410156 C 276.695312 865.289062 274.773438 863.519531 261.234375 862.621094 C 247.691406 861.71875 249.769531 848.789062 234.675781 851.238281 C 219.582031 853.691406 192.183594 861.300781 200.53125 874 C 208.875 886.699219 226.144531 912.210938 265.027344 930.910156 C 303.914062 949.621094 307.386719 946.589844 314.351562 968.851562 C 321.316406 991.109375 341.328125 1006.410156 356.085938 1006.789062 C 370.84375 1007.179688 386.433594 991.648438 412.996094 965.058594 C 412.996094 965.058594 424.816406 963.550781 428.171875 968.851562 L 431.964844 965.058594 C 431.964844 965.058594 422.574219 957.289062 409.203125 957.46875 C 409.203125 957.46875 439.257812 929.578125 458.523438 904.351562 C 494.332031 857.46875 551.300781 799.980469 560.964844 763.96875 C 560.964844 763.96875 574.296875 819 587.519531 839.859375 C 587.519531 839.859375 589.707031 876.148438 610.285156 892.96875 C 630.863281 909.789062 627.429688 904.941406 633.050781 915.730469 C 638.671875 926.53125 644.433594 930.910156 644.433594 930.910156 C 644.433594 930.910156 636.46875 956.078125 640.636719 976.441406 C 644.804688 996.800781 646.183594 992.121094 655.8125 999.199219 C 665.441406 1006.28125 667.195312 1010.589844 667.195312 1010.589844 C 667.195312 1010.589844 627.433594 1070.480469 610.285156 1086.46875 C 593.136719 1102.449219 535.847656 1156.585938 507.847656 1192.699219 C 479.84375 1228.8125 469.128906 1214.253906 424.378906 1310.316406 C 424.378906 1310.316406 439.300781 1317.867188 431.964844 1333.078125 C 424.628906 1348.289062 415.453125 1383.265625 397.820312 1416.546875 C 380.183594 1449.828125 318.46875 1609.460938 246.058594 1655.570312 C 246.058594 1655.570312 238.429688 1639.449219 234.675781 1647.984375 C 230.921875 1656.519531 219.050781 1648.648438 215.707031 1659.363281 C 212.363281 1670.082031 211.542969 1675.257812 200.53125 1682.128906 C 189.515625 1689 172.296875 1704.550781 166.382812 1712.480469 C 166.382812 1712.480469 151.355469 1716.605469 147.414062 1723.863281 C 143.46875 1731.121094 128.847656 1725.726562 117.0625 1746.628906 C 105.273438 1767.53125 101.71875 1783.164062 117.0625 1788.363281 C 132.402344 1793.5625 186.101562 1813.136719 261.234375 1761.804688 C 261.234375 1761.804688 303.367188 1772.535156 321.9375 1761.804688 C 340.507812 1751.074219 346.082031 1734.203125 337.113281 1701.101562 C 337.113281 1701.101562 347.652344 1697.070312 352.289062 1682.128906 C 356.929688 1667.1875 352.289062 1670.746094 352.289062 1670.746094 L 344.703125 1674.542969 C 344.703125 1674.542969 342.195312 1688.6875 333.320312 1689.71875 C 333.320312 1689.71875 329.683594 1669.804688 363.671875 1647.984375 C 397.664062 1626.160156 429.023438 1577.929688 450.9375 1549.339844 C 472.851562 1520.746094 496.109375 1503.578125 515.433594 1465.871094 C 534.757812 1428.164062 534.40625 1389.988281 534.40625 1389.988281 C 534.40625 1389.988281 580.324219 1386.09375 595.109375 1371.019531 C 609.894531 1355.945312 596.925781 1357.699219 602.695312 1348.253906 C 608.46875 1338.808594 602.109375 1335.730469 610.285156 1325.492188 C 618.460938 1315.25 604.699219 1296.707031 614.078125 1291.34375 C 623.460938 1285.980469 654.269531 1255.359375 670.988281 1249.609375 C 687.710938 1243.859375 683.109375 1239.550781 697.546875 1230.640625 C 711.984375 1221.730469 717.851562 1208.566406 731.695312 1204.082031 C 745.539062 1199.597656 748.386719 1193.921875 754.457031 1188.90625 C 760.53125 1183.890625 764.910156 1183.292969 773.429688 1177.523438 C 781.949219 1171.753906 809.03125 1153.285156 826.546875 1147.171875 C 844.058594 1141.058594 871.714844 1118.730469 879.660156 1120.613281 C 887.605469 1122.496094 891.042969 1131.996094 891.042969 1131.996094 C 891.042969 1131.996094 856.988281 1194.207031 875.867188 1215.464844 C 894.746094 1236.722656 917.601562 1249.609375 917.601562 1249.609375 C 917.601562 1249.609375 917.671875 1330.757812 941.722656 1321.695312 C 955.992188 1316.320312 959.335938 1302.726562 959.335938 1302.726562 C 959.335938 1302.726562 970.71875 1323.929688 985.894531 1310.316406 C 1001.070312 1296.699219 1004.910156 1272.117188 997.277344 1260.992188 C 989.648438 1249.867188 986.140625 1244.867188 985.894531 1238.226562 C 985.894531 1238.226562 1002.210938 1217.695312 1001.070312 1204.082031 L 1012.449219 1192.699219 L 1008.660156 1185.109375 C 1008.660156 1185.109375 1032.078125 1151.523438 1031.421875 1139.582031 L 1027.628906 1128.199219 C 1027.628906 1128.199219 1038.601562 1124.839844 1023.839844 1116.820312 L 1027.628906 1113.023438 C 1027.628906 1113.023438 1042.441406 1121.414062 1046.601562 1116.820312 C 1050.761719 1112.222656 1043.089844 1110.316406 1035.21875 1097.851562 C 1027.339844 1085.378906 1025.878906 1083.390625 1020.039062 1082.671875 C 1020.039062 1082.671875 1007.230469 1058.710938 993.484375 1048.53125 C 979.734375 1038.339844 982.101562 1056.109375 982.101562 1056.109375 C 982.101562 1056.109375 999.492188 1068.539062 997.277344 1075.078125 C 997.277344 1075.078125 980.28125 1074.28125 974.511719 1063.699219 C 974.511719 1063.699219 972.898438 1043.738281 993.484375 1040.941406 C 1014.070312 1038.140625 1031.421875 999.199219 1031.421875 999.199219 C 1031.421875 999.199219 1040.339844 1005.300781 1042.808594 991.621094 C 1042.808594 991.621094 1057.230469 980.390625 1076.949219 980.230469 C 1096.671875 980.078125 1103.128906 968.601562 1114.890625 965.058594 C 1125.070312 961.988281 1189.089844 938.28125 1215.589844 924.910156 "/>
<g clip-path="url(#clip-0)">
<path fill-rule="evenodd" fill="rgb(0%, 0%, 0%)" fill-opacity="1" d="M 2179.898438 0.128906 L 2355.488281 205.988281 C 2355.488281 205.988281 2306.539062 317.429688 2233.859375 358.171875 C 2161.179688 398.910156 2184.011719 408.550781 2115.210938 414.269531 C 2046.398438 420 2021.511719 415.101562 1995.238281 450.988281 C 1968.980469 486.878906 1942.941406 479.558594 1872.179688 495.828125 C 1801.429688 512.101562 1800.578125 485.789062 1716.28125 491.230469 C 1631.96875 496.671875 1633.03125 454.648438 1558.261719 449.929688 C 1483.488281 445.21875 1382.621094 429.28125 1382.621094 429.28125 C 1382.621094 429.28125 1335.328125 454.308594 1300.328125 449.96875 C 1217.011719 439.640625 1061.039062 369.128906 1069.691406 390.359375 L 866.894531 412.25 L 692.945312 332.890625 C 692.945312 332.890625 695.199219 277.160156 621.828125 287.03125 C 548.457031 296.898438 118.855469 140.019531 118.855469 140.019531 L -158.804688 0.128906 L 2179.898438 0.128906 "/>
</g>
</svg>
